<?xml version="1.0" encoding="utf-8"?>
<!-- Generator: Adobe Illustrator 27.5.0, SVG Export Plug-In . SVG Version: 6.00 Build 0)  -->
<svg version="1.1" xmlns="http://www.w3.org/2000/svg" xmlns:xlink="http://www.w3.org/1999/xlink" x="0px" y="0px"
	 viewBox="0 0 3710 3710" style="enable-background:new 0 0 3710 3710;" xml:space="preserve">
<g id="Background">
	<g>
		<g>
			<rect style="fill:#FFFFFF;" width="3710" height="3710"/>
		</g>
	</g>
</g>
<g id="Illustration">
	<g>
		<path style="fill:#F4F7FA;" d="M3027.757,2709.092c-337.153,695.81-1913.934,663.219-2285.598,255.899
			c-148.335-162.542-187.5-441.712-245.071-851.778c-27.715-197.399-31.683-356.516-34.036-465.686
			c-8.114-371.357-12.153-557.054,47.629-683.385c171.237-361.618,766.09-502.362,1150.576-508.891
			c26.835-0.464,53.917-0.285,81.209,0.535c450.205,13.414,958.227,200.823,1271.547,601.293
			c32.387,41.314,62.629,84.91,90.555,130.826C3390.559,1658.194,3249.169,2252.146,3027.757,2709.092z"/>
		<g>
			<g>
				<g>
					
						<linearGradient id="SVGID_1_" gradientUnits="userSpaceOnUse" x1="-4841.2002" y1="-4904.8462" x2="-4312.3755" y2="-1524.1395" gradientTransform="matrix(0.583 -0.8125 0.8125 0.583 7198.0249 659.3145)">
						<stop  offset="0" style="stop-color:#FF9085"/>
						<stop  offset="1" style="stop-color:#FB6FBB"/>
					</linearGradient>
					<path style="fill:url(#SVGID_1_);" d="M1821.157,2716.603c17.5-8.27,48.282-41.69,52.714-53.71
						c29.496-79.992,94.45-226.172,61.71-310.144c-5.591-14.341-75.32-6.773-88.818-17.229
						c-45.628-5.966-61.827-5.205-102.418-32.186c-119.837-79.654,9.228-343.785-239.612-341.437
						c-182.271,1.72-303.611,103.963-368.937-158.725c-65.326-262.688-420.544-664.954-633.856-397.953
						c-122.421,153.233,106.329,320.58,78.357,507.657c-26.58,177.772,79.131,282.842,271.554,322.11
						c192.423,39.268,128.376,138.04,128.181,298.869c-0.233,193.191,278.706,137.158,405.278,100.303
						C1487.236,2604.48,1766.797,2597.675,1821.157,2716.603z"/>
					<g>
						<defs>
							<path id="SVGID_00000060712905490340110830000007598444754718781824_" d="M1969.79,2317.245
								c-0.147,133.054,5.186,268.453,5.762,402.445c-70.111,29.131-153.292,61.691-197.865-21.676
								c-61.97-115.906-290.981-94.209-392.664-64.014c-125.852,37.373-405.389,92.873-405.013-100.175
								c0.313-160.711,64.23-259.611-128.174-298.848c-192.404-39.237-298.086-144.333-271.542-322.113
								c27.934-187.087-200.737-354.338-78.355-507.651c213.245-267.14,568.687,135.514,633.786,397.869
								s187.441,161.479,368.814,158.566c247.614-3.978,123.067,266.101,238.393,339.563
								C1833.341,2358.802,1879.909,2327.875,1969.79,2317.245z"/>
						</defs>
						<clipPath id="SVGID_00000085218839651795918330000014858361872429302427_">
							<use xlink:href="#SVGID_00000060712905490340110830000007598444754718781824_"  style="overflow:visible;"/>
						</clipPath>
						<g style="opacity:0.8;clip-path:url(#SVGID_00000085218839651795918330000014858361872429302427_);">
							<g>
								<path style="fill:#FCFDFE;" d="M1904.864,2515.68c-161.499-22.848-317.084-70.198-462.43-140.734
									c-139.661-67.779-270.088-157.015-387.658-265.233c-228.228-210.078-404.352-488.351-509.328-804.734l3.415-1.133
									c221.563,667.76,728.667,1119.45,1356.506,1208.272L1904.864,2515.68z"/>
							</g>
							<g>
								<path style="fill:#FCFDFE;" d="M970.573,2613.931l-2.122-2.906c140.659-102.547,403.389-189.117,585.675-192.979
									l0.077,3.598C1372.542,2425.492,1110.726,2511.751,970.573,2613.931z"/>
							</g>
							<g>
								<path style="fill:#FCFDFE;" d="M1781.908,2496.855c-87.208-39.085-151.242-120.569-190.329-242.185
									c-28.521-88.749-43.349-196.478-44.069-320.195l3.598-0.021c0.717,123.35,15.485,230.716,43.897,319.117
									c38.76,120.602,102.138,201.352,188.372,240.003L1781.908,2496.855z"/>
							</g>
							<g>
								<path style="fill:#FCFDFE;" d="M1023.48,2078.591c-157.57-80.59-342.334-56.013-469.584-21.209l-0.949-3.472
									c127.862-34.974,313.577-59.635,472.17,21.476L1023.48,2078.591z"/>
							</g>
							<g>
								<path style="fill:#FCFDFE;" d="M763.884,1764.112c-75.953-187.272-20.387-391.699,19.494-496.888l3.366,1.276
									c-39.695,104.696-95.019,308.126-19.529,494.259L763.884,1764.112z"/>
							</g>
						</g>
					</g>
				</g>
			</g>
			<g>
				<g>
					<defs>
						<path id="SVGID_00000089552137460824046180000011284481118745298053_" d="M1570.971,2806.656
							c101.345-12.335,202.587-26.598,303.645-42.783c1.644,1.23,34.863-181.096-69.775-276.714
							c-206.918-185.236-67.543-351.485-27.787-449.993c63.627-138.91,31.016-307.744-153.837-276.12
							c-180.089,27.235-207.407-279.627-176.324-516.027c26.529-115.058-104.635-254.661-235.526-286.565
							c-133.621-35.347-266.967,37.004-307.832,266.346c-61.864,265.542,172.276,425.676,258.977,558.808
							c85.31,130.693-113.144,236.436,46.59,352.235c134.357,102.893,303.693,176.859,241.748,306.106
							C1387.207,2569.731,1402.444,2674.202,1570.971,2806.656z"/>
					</defs>
					<clipPath id="SVGID_00000082359081381136867990000014503065359297630905_">
						<use xlink:href="#SVGID_00000089552137460824046180000011284481118745298053_"  style="overflow:visible;"/>
					</clipPath>
				</g>
				<g>
					<defs>
						<path id="SVGID_00000075159455713639991180000012680569270426796689_" d="M1570.971,2806.656
							c101.345-12.335,202.587-26.598,303.645-42.783c1.644,1.23,34.863-181.096-69.775-276.714
							c-206.918-185.236-67.543-351.485-27.787-449.993c63.627-138.91,31.016-307.744-153.837-276.12
							c-180.089,27.235-207.407-279.627-176.324-516.027c26.529-115.058-104.635-254.661-235.526-286.565
							c-133.621-35.347-266.967,37.004-307.832,266.346c-61.864,265.542,172.276,425.676,258.977,558.808
							c85.31,130.693-113.144,236.436,46.59,352.235c134.357,102.893,303.693,176.859,241.748,306.106
							C1387.207,2569.731,1402.444,2674.202,1570.971,2806.656z"/>
					</defs>
					<clipPath id="SVGID_00000148643495501421266540000004831664206260955302_">
						<use xlink:href="#SVGID_00000075159455713639991180000012680569270426796689_"  style="overflow:visible;"/>
					</clipPath>
					
						<linearGradient id="SVGID_00000085234424871538576180000017647365939632560529_" gradientUnits="userSpaceOnUse" x1="-1026.9001" y1="-1881.3569" x2="-1636.6771" y2="-148.305" gradientTransform="matrix(0.8674 -0.4976 0.4976 0.8674 3060.8926 2110.0093)">
						<stop  offset="0" style="stop-color:#AA80F9"/>
						<stop  offset="0.9964" style="stop-color:#6165D7"/>
					</linearGradient>
					
						<path style="clip-path:url(#SVGID_00000148643495501421266540000004831664206260955302_);fill:url(#SVGID_00000085234424871538576180000017647365939632560529_);" d="
						M1570.971,2806.656c101.345-12.335,202.587-26.598,303.645-42.783c1.644,1.23,34.863-181.096-69.775-276.714
						c-206.918-185.236-67.543-351.485-27.787-449.993c62.989-138.807,29.859-289.117-140.833-291.339
						c-189.318-5.532-223.642-264.885-189.328-500.808c26.529-115.058-104.635-254.661-235.526-286.565
						c-133.621-35.347-266.967,37.004-307.832,266.346c-61.864,265.542,172.276,425.676,258.977,558.808
						c85.31,130.693-113.144,236.436,46.59,352.235c134.357,102.893,303.693,176.859,241.748,306.106
						C1387.207,2569.731,1402.444,2674.202,1570.971,2806.656z"/>
					<g style="opacity:0.8;clip-path:url(#SVGID_00000148643495501421266540000004831664206260955302_);">
						<g>
							<path style="fill:#FCFDFE;" d="M1706.686,2817.469c-1.247-11.807-103.434-399.444-263.568-757.421
								c-23.109-60.567-48.16-121.517-72.384-180.46c-64.93-157.999-132.076-321.379-163.985-484.191
								c-35.717-182.213-22.977-346.354,38.946-501.804l3.555,0.972c-137.504,345.199-9.982,655.503,125.032,984.026
								c24.232,58.958,49.286,119.925,72.377,180.452c167.051,373.429,263.802,756.769,263.769,758.385l-3.745-0.052l1.873,0.026
								L1706.686,2817.469z"/>
						</g>
						<g>
							<path style="fill:#FCFDFE;" d="M1253.423,1573.333c-113.082-103.994-249.468-251.713-322.737-331.074
								c-31.317-33.922-56.053-60.715-58.983-62.339l0.808-0.999l-0.362-1.924c2.505-0.295,4.894,2.054,61.514,63.379
								c73.236,79.326,209.559,226.982,322.547,330.883L1253.423,1573.333z"/>
						</g>
						<g>
							<path style="fill:#FCFDFE;" d="M1218.954,1430.911l-3.694-0.497c17.878-91.087,59.97-172.805,121.722-236.326
								c49.019-50.426,95.723-74.6,108.218-79.094c2.674-0.958,3.833-1.097,4.806-0.564l-2.085,2.576
								c0.461,0.253,0.841,0.218,0.852,0.218c-4.674,0.412-50.79,21.674-101.437,71.337
								C1301.686,1233.327,1242.352,1311.712,1218.954,1430.911z"/>
						</g>
						<g>
							<path style="fill:#FCFDFE;" d="M1542.258,2303.104c-16.031-111.441,15.3-231.237,93.116-356.06
								c40.526-65.007,92.205-128.684,153.594-189.263c3.215-3.171,5.753-5.676,6.101-6.174l3.241,1.553
								c-0.49,0.704-2.231,2.429-6.47,6.613c-85.299,84.172-280.009,305.578-245.865,542.964L1542.258,2303.104z"/>
						</g>
						<g>
							<path style="fill:#FCFDFE;" d="M1496.563,2186.405c-119.977-160.431-371.53-171.74-375.816-171.74h-0.04l-0.161-1.536
								l-0.596,1.473l-1.287-1.523l1.397-1.453c2.169-0.492,258.198,10.692,379.686,173.148L1496.563,2186.405z"/>
						</g>
						<g>
							<path style="fill:#FCFDFE;" d="M1689.769,2754.908c-2.165-48.774,18.793-131.801,130.932-250.357
								c2.633-2.782,4.909-5.187,5.216-5.664l1.375,0.607l2.202-0.26c0.154,0.888,0.154,0.888-5.845,7.229
								c-111.44,117.818-132.278,200.074-130.134,248.33L1689.769,2754.908z"/>
						</g>
						<g>
							<path style="fill:#FCFDFE;" d="M1664.031,2664.014c-29.477-84.178-172.694-146.218-255.444-175.707
								c-2.824-1.007-4.634-1.656-5.282-1.93l1.712-2.758c0.618,0.263,2.355,0.879,5.051,1.841
								c83.353,29.705,227.657,92.29,257.562,177.691L1664.031,2664.014z"/>
						</g>
					</g>
				</g>
				<g>
					<defs>
						<path id="SVGID_00000021088835592777883770000009165902509582719657_" d="M1570.971,2806.656
							c101.345-12.335,202.587-26.598,303.645-42.783c1.644,1.23,34.863-181.096-69.775-276.714
							c-206.918-185.236-67.543-351.485-27.787-449.993c63.627-138.91,31.016-307.744-153.837-276.12
							c-180.089,27.235-207.407-279.627-176.324-516.027c26.529-115.058-104.635-254.661-235.526-286.565
							c-133.621-35.347-266.967,37.004-307.832,266.346c-61.864,265.542,172.276,425.676,258.977,558.808
							c85.31,130.693-113.144,236.436,46.59,352.235c134.357,102.893,303.693,176.859,241.748,306.106
							C1387.207,2569.731,1402.444,2674.202,1570.971,2806.656z"/>
					</defs>
					<clipPath id="SVGID_00000109747016194404105720000001256081966772914325_">
						<use xlink:href="#SVGID_00000021088835592777883770000009165902509582719657_"  style="overflow:visible;"/>
					</clipPath>
				</g>
			</g>
		</g>
		<g>
			<g>
				<g>
					<path style="fill:#BFC8D6;" d="M3258.475,2843.682l-2500.642-21.979v65.033c0,17.651,10.907,32.66,25.678,35.334
						l707.107,128.061c8.392,1.52,16.902,1.923,25.37,1.202l1715.313-146.01c15.314-1.303,27.175-16.359,27.175-34.494V2843.682z"/>
					<g>
						<path style="fill:#BFC8D6;" d="M2351.001,2738.261l-1567.31,118.969c-28.046,2.129-50.85-20.492-50.85-50.531V1603.215
							c0-30.039,22.803-54.391,50.85-54.391h1567.31c23.106,0,41.787,22.013,41.787,49.169v1087.927
							C2392.789,2713.075,2374.107,2736.507,2351.001,2738.261z"/>
						<path style="fill:#FFFFFF;" d="M2375.992,2738.261l-1567.31,118.969c-28.047,2.129-50.85-20.492-50.85-50.531V1603.215
							c0-30.039,22.803-54.391,50.85-54.391h1567.31c23.106,0,41.788,22.013,41.788,49.169v1087.927
							C2417.78,2713.075,2399.098,2736.507,2375.992,2738.261z"/>
						<path style="fill:#D8DEE8;" d="M2327.166,2661.56L867.38,2764.901c-22.823,1.615-41.371-16.951-41.371-41.474V1669.775
							c0-24.522,18.547-44.486,41.371-44.587l1459.786-6.489c19.061-0.085,34.478,17.953,34.478,40.29v959.688
							C2361.644,2641.013,2346.227,2660.212,2327.166,2661.56z"/>
						<path style="fill:#FFFFFF;" d="M1647.69,1581.743c0,11.182-8.067,20.274-18.029,20.306
							c-9.974,0.033-18.068-9.027-18.068-20.234c0-11.207,8.094-20.299,18.068-20.307
							C1639.623,1561.5,1647.69,1570.559,1647.69,1581.743z"/>
						<path style="opacity:0.48;fill:#FFFFFF;" d="M1998.373,2408.187c-120.826-69.829-215.83,18.652-307.517-68.647
							c-55.586-52.927-28.296-92.395-96.694-171.488c-75.755-87.602-125.077-58.155-201.21-136.997
							c-96.265-99.691-48.118-177.253-131.039-248.828c-100.594-86.831-209.08-6.463-304.838-89.737
							c-41.302-35.917-63.963-88.132-75.796-143.664h-93.695c-16.419,0-29.752,14.293-29.752,31.926v1247.516
							c0,17.632,13.333,30.909,29.752,29.657l1597.346-121.787c7.839-0.597,14.79-5.514,19.25-12.641
							c-116.93-4.577-188.766-46.681-234.686-90.208C2079.664,2548.14,2095.245,2464.17,1998.373,2408.187z"/>
					</g>
					
						<linearGradient id="SVGID_00000126288043989433002140000018359934951424670899_" gradientUnits="userSpaceOnUse" x1="757.8323" y1="2862.4351" x2="3258.4746" y2="2862.4351">
						<stop  offset="0.494" style="stop-color:#EBEFF2"/>
						<stop  offset="1" style="stop-color:#FFFFFF"/>
					</linearGradient>
					<path style="fill:url(#SVGID_00000126288043989433002140000018359934951424670899_);" d="M2438.461,2732.866L757.832,2858.093
						l732.785,132.711c8.392,1.52,16.902,1.923,25.37,1.202l1742.487-148.323l-793.28-109.966
						C2456.323,2732.487,2447.375,2732.202,2438.461,2732.866z"/>
					<polygon style="fill:#D8DEE8;" points="1003.062,2861.242 2402.236,2755.433 2835.267,2814.977 1448.147,2928.082 					"/>
				</g>
			</g>
		</g>
		<g>
			<defs>
				<polygon id="SVGID_00000061440691177472254710000010120116642551592120_" points="2296.269,2663.748 931.522,2759.048 
					696.26,1843.074 1242.429,997.566 2727.598,1319.768 				"/>
			</defs>
			<clipPath id="SVGID_00000084524392085497926250000018107131898728954504_">
				<use xlink:href="#SVGID_00000061440691177472254710000010120116642551592120_"  style="overflow:visible;"/>
			</clipPath>
			<g style="clip-path:url(#SVGID_00000084524392085497926250000018107131898728954504_);">
				
					<linearGradient id="SVGID_00000015342897809254208880000005374528976860197522_" gradientUnits="userSpaceOnUse" x1="2127.6582" y1="1533.5024" x2="2909.4919" y2="2299.489">
					<stop  offset="0" style="stop-color:#FFC444"/>
					<stop  offset="0.9964" style="stop-color:#F36F56"/>
				</linearGradient>
				<path style="fill:url(#SVGID_00000015342897809254208880000005374528976860197522_);" d="M1937.346,1614.564
					c0,0,264.369,235.33,419.512,149.139s40.222-278.151,40.222-278.151s-49.357-62.18,40.961-47.338
					c98.86,16.245,194.627-31.847,194.627-31.847l-51.671,54.462c-17.285,18.219-40.727,29.36-65.769,31.258l-39.619,3.003
					c0,0,203.027,412.265-90.021,498.455c-293.049,86.191-540.447-114.921-540.447-114.921L1937.346,1614.564z"/>
				
					<linearGradient id="SVGID_00000052803801516426766660000006559799886147165591_" gradientUnits="userSpaceOnUse" x1="2885.8145" y1="546.353" x2="2839.6758" y2="604.222" gradientTransform="matrix(0.9964 0.0852 -0.0852 0.9964 -1141.2603 276.6182)">
					<stop  offset="0" style="stop-color:#444B8C"/>
					<stop  offset="0.9964" style="stop-color:#3E4177"/>
				</linearGradient>
				<path style="fill:url(#SVGID_00000052803801516426766660000006559799886147165591_);" d="M1590.23,1197.748
					c-20.233-12.534-19.583-39.518-19.325-50.183c0.607-25.215,13.32-65.745,41.172-70.723
					c22.376-3.999,40.717,17.418,42.975,20.133c22.97,27.612,7.641,65.239,5.971,69.158c-3.743,8.782-11.466,26.901-31.064,34.356
					C1628.576,1201.015,1607.728,1208.588,1590.23,1197.748z"/>
				<g style="opacity:0.3;">
					
						<linearGradient id="SVGID_00000116951142811526798750000000049297116292808372_" gradientUnits="userSpaceOnUse" x1="2882.9175" y1="547.2414" x2="2837.4878" y2="604.221" gradientTransform="matrix(0.9964 0.0852 -0.0852 0.9964 -1141.2603 276.6182)">
						<stop  offset="0" style="stop-color:#444B8C"/>
						<stop  offset="0.9964" style="stop-color:#3E4177"/>
					</linearGradient>
					<path style="fill:url(#SVGID_00000116951142811526798750000000049297116292808372_);" d="M1634.451,1146.684
						c-10.864-18.205-33.109-17.184-38.416-32.575c-2.65-7.686-0.914-19.054,12.921-36.526
						c-25.679,7.331-37.467,45.731-38.052,69.982c-0.257,10.665-0.908,37.649,19.325,50.183c17.498,10.84,38.346,3.267,39.728,2.741
						c0.861-0.328,1.691-0.682,2.506-1.049C1639.765,1181.148,1643.324,1161.554,1634.451,1146.684z"/>
				</g>
				
					<linearGradient id="SVGID_00000098186499453360772160000014183311298361124500_" gradientUnits="userSpaceOnUse" x1="2919.2495" y1="644.755" x2="2791.6746" y2="983.1404" gradientTransform="matrix(0.9964 0.0852 -0.0852 0.9964 -1141.2603 276.6182)">
					<stop  offset="0" style="stop-color:#444B8C"/>
					<stop  offset="0.9964" style="stop-color:#3E4177"/>
				</linearGradient>
				<path style="fill:url(#SVGID_00000098186499453360772160000014183311298361124500_);" d="M1442.534,1699.658
					c0,0-17.685-298.172,9.274-401.701c26.958-103.528,127.69-120.541,170.278-119.793c42.567,0.747,124.931,33.168,121.105,156.541
					c-3.825,123.335-89.99,379.896-89.99,379.896L1442.534,1699.658z"/>
				<path style="opacity:0.3;fill:#FFFFFF;" d="M1578.625,1444.454c65.87-8.055,80.47-70.245,141.022-77.436
					c5.864-0.697,12.461-0.904,19.751-0.194c-0.91-11.796-2.041-23.142-3.425-33.868c-8.24-1.014-15.635-0.845-22.13-0.075
					c-60.556,7.179-75.156,69.369-141.031,77.411c-53.73,6.559-77.698-30.683-123.162-14.477
					c-11.712,4.175-21.608,10.747-29.946,18.354c1.892,10.812,4.077,22.056,6.491,33.583c8.196-7.35,17.879-13.684,29.277-17.75
					C1500.932,1413.787,1524.898,1451.024,1578.625,1444.454z"/>
				
					<linearGradient id="SVGID_00000000904366274598248060000016537003452495431300_" gradientUnits="userSpaceOnUse" x1="2923.0171" y1="633.7877" x2="2790.7786" y2="984.5424" gradientTransform="matrix(0.9964 0.0852 -0.0852 0.9964 -1141.2603 276.6182)">
					<stop  offset="0" style="stop-color:#444B8C"/>
					<stop  offset="0.9964" style="stop-color:#3E4177"/>
				</linearGradient>
				<path style="opacity:0.3;fill:url(#SVGID_00000000904366274598248060000016537003452495431300_);" d="M1717.747,1400.459
					c-55.322-7.927-82.874,48.751-143.104,40.352c-49.124-6.85-61.594-48.83-105.662-44.299
					c-11.049,1.136-21.111,4.893-30.097,9.999c-1.616,33.252-2.139,69.135-2.029,104.01c7.14-3.268,14.872-5.601,23.16-6.458
					c44.066-4.556,56.535,37.405,105.657,44.224c60.228,8.36,87.777-48.32,143.097-40.428
					C1710.194,1508.061,1723.105,1401.227,1717.747,1400.459z"/>
				
					<linearGradient id="SVGID_00000036970666894154357560000004977630379290652585_" gradientUnits="userSpaceOnUse" x1="976.5767" y1="1940.5228" x2="1826.9954" y2="2773.7041">
					<stop  offset="0" style="stop-color:#FFC444"/>
					<stop  offset="0.9964" style="stop-color:#F36F56"/>
				</linearGradient>
				<path style="fill:url(#SVGID_00000036970666894154357560000004977630379290652585_);" d="M1231.872,1681.492
					c-324.377,84.407-475.245,388.494-398.341,589.65c52.584,137.559,213.726,232.328,397.348,245.033
					c5.802-15.657,11.61-31.314,17.418-46.971c-30.363-6.471-87.487-23.066-141.205-69.645
					c-60.749-52.678-107.441-135.306-106.027-212.284c2.402-130.468,143.41-266.655,347.361-284.75
					C1309.572,1828.848,1270.725,1755.17,1231.872,1681.492z"/>
				
					<linearGradient id="SVGID_00000081609051094550070300000009133806778463706792_" gradientUnits="userSpaceOnUse" x1="2255.5178" y1="1479.2651" x2="1641.0081" y2="2880.1404">
					<stop  offset="0.0036" style="stop-color:#E38DDD"/>
					<stop  offset="0.7059" style="stop-color:#AC79EF"/>
					<stop  offset="1" style="stop-color:#9571F6"/>
				</linearGradient>
				<path style="fill:url(#SVGID_00000081609051094550070300000009133806778463706792_);" d="M1166.802,1681.214
					c25.571,73.001,56.512,125.501,79.485,159.409c78.369,115.654,184.833,212.169,184.833,212.169
					c41.059,37.223,55.598,45.239,61.287,68.953c16.037,66.775-68.341,131.896-130.24,195.366c0,0-188.492,193.266-235.588,465.431
					c-13.181,76.155-21.727,216.313,61.287,402.224c37.535-34.726,99.512-82.465,185.226-105.147
					c253.079-66.97,423.727,161.052,737.976,176.016c96.162,4.579,236.076-9.349,409.883-101.514
					c-17.569-58.89-52.753-148.718-128.327-229.842c-173.897-186.663-373.954-125.757-489.711-298.989
					c-73.638-110.197-65.743-244.178-60.328-336.127c8.265-140.306,53.538-193.348,84.608-368.529
					c22.614-127.506,22.597-234.57,19.151-304.541c-87.218-15.258-193.845-26.227-315.135-22.318
					C1438.365,1599.99,1279.496,1641.527,1166.802,1681.214z"/>
				
					<linearGradient id="SVGID_00000117641984998721430620000004450197316360913288_" gradientUnits="userSpaceOnUse" x1="1297.0295" y1="1573.8722" x2="1845.1422" y2="1573.8722">
					<stop  offset="0" style="stop-color:#FFC444"/>
					<stop  offset="0.9964" style="stop-color:#F36F56"/>
				</linearGradient>
				<path style="fill:url(#SVGID_00000117641984998721430620000004450197316360913288_);" d="M1550.81,1457.851
					c0,0,7.029,103.266-57.306,130.983c-64.334,27.717-196.475,52.79-196.475,52.79l259.901,51.07
					c62.236,12.229,126.791,2.061,182.254-28.707l105.958-58.78l-154.428-29.164c-37.57-7.095-66.934-36.52-73.951-74.105
					l-9.696-51.934L1550.81,1457.851z"/>
				
					<linearGradient id="SVGID_00000104667539391713659780000003244444919261110670_" gradientUnits="userSpaceOnUse" x1="1118.1593" y1="2466.1633" x2="2520.9543" y2="2466.1633">
					<stop  offset="0.0036" style="stop-color:#E38DDD"/>
					<stop  offset="0.7059" style="stop-color:#AC79EF"/>
					<stop  offset="1" style="stop-color:#9571F6"/>
				</linearGradient>
				<path style="opacity:0.3;fill:url(#SVGID_00000104667539391713659780000003244444919261110670_);" d="M1945.392,3129.22
					c-213.816-20.711-480.666-155.878-531.51-373.494c-41.732-178.613,81.525-376.195,140.779-471.177
					c123.689-198.273,250.991-255.803,226.969-321.779c-35.108-96.416-316.179,1.201-505.653-163.763
					c-41.934-36.509-72.022-79.473-93.822-123.076c-5.171,1.762-10.361,3.524-15.353,5.282
					c25.574,73.001,56.512,125.501,79.488,159.409c78.369,115.654,184.83,212.169,184.83,212.169
					c41.059,37.223,55.598,45.239,61.291,68.953c16.034,66.776-68.341,131.896-130.243,195.366c0,0-188.492,193.266-235.588,465.43
					c-13.178,76.155-21.727,216.313,61.29,402.224c37.535-34.726,99.51-82.465,185.226-105.148
					c253.076-66.97,423.727,161.052,737.976,176.016c96.159,4.579,236.074-9.349,409.884-101.513
					c-26.581-37.985-63.232-94.673-99.496-167.75C2306.995,3070.25,2143.642,3148.424,1945.392,3129.22z"/>
				
					<linearGradient id="SVGID_00000012469652100772142330000018020348512551442100_" gradientUnits="userSpaceOnUse" x1="1266.8251" y1="2443.0916" x2="1402.7483" y2="2576.2598">
					<stop  offset="0" style="stop-color:#FFC444"/>
					<stop  offset="0.9964" style="stop-color:#F36F56"/>
				</linearGradient>
				<path style="fill:url(#SVGID_00000012469652100772142330000018020348512551442100_);" d="M1224.566,2510.646
					c0,0,27.437-108.24,72.463-98.215c45.026,10.025,90.995,40.448,90.995,40.448S1274.54,2472.015,1224.566,2510.646z"/>
				
					<linearGradient id="SVGID_00000036252401715717386610000008840391164017968770_" gradientUnits="userSpaceOnUse" x1="3032.4866" y1="683.8373" x2="2906.522" y2="1017.9512" gradientTransform="matrix(0.9964 0.0852 -0.0852 0.9964 -1141.2603 276.6182)">
					<stop  offset="0" style="stop-color:#444B8C"/>
					<stop  offset="0.9964" style="stop-color:#3E4177"/>
				</linearGradient>
				<path style="fill:url(#SVGID_00000036252401715717386610000008840391164017968770_);" d="M1626.821,1883.315
					c-22.134-5.399,33.49-189.86,37.917-480.533c0.918-60.295-0.595-110.035-2.095-143.571c24.232,3.033,48.458,6.066,72.676,9.097
					c20.601,88.81,43.795,250.168-16.354,436.043C1690.683,1791.745,1643.1,1887.286,1626.821,1883.315z"/>
				
					<linearGradient id="SVGID_00000017505122260603971370000014498035479569652665_" gradientUnits="userSpaceOnUse" x1="2813.1521" y1="1002.1362" x2="2843.9185" y2="250.5484" gradientTransform="matrix(0.9964 0.0852 -0.0852 0.9964 -1141.2603 276.6182)">
					<stop  offset="0" style="stop-color:#FFC444"/>
					<stop  offset="0.9964" style="stop-color:#F36F56"/>
				</linearGradient>
				<path style="fill:url(#SVGID_00000017505122260603971370000014498035479569652665_);" d="M1506.497,1335.777
					c-1.526,18.3-21.197,151.912,83.501,155.934c95.617,3.673,95.437-94.416,96.747-143.598c0,0-0.683-44.271-31.839-58.071
					c0,0,27.7,26.374,22.689,80.835c0,0-4.997-29.351-75.05-33.082c-70.109-3.734-87.366,26.729-87.366,26.729
					s-8.02-52.974,29.968-78.825C1545.147,1285.699,1519.179,1292.398,1506.497,1335.777z"/>
			</g>
		</g>
		<g>
			<g>
				<path style="fill:#BFC8D6;" d="M2308.077,2574.985c-0.247,12.98-7.932,23.881-17.185,24.353l-1152.694,58.832
					c-12.458,0.636-22.548-11.087-22.504-26.191l0.014-4.927c0.044-15.112,10.214-27.813,22.682-28.362l1153.469-50.719
					c9.258-0.407,16.546,9.794,16.298,22.78L2308.077,2574.985z"/>
				
					<linearGradient id="SVGID_00000070084432855915439400000017556910837374722223_" gradientUnits="userSpaceOnUse" x1="1115.6941" y1="2612.4448" x2="1883.4573" y2="2612.4448">
					<stop  offset="0" style="stop-color:#FF9085"/>
					<stop  offset="1" style="stop-color:#FB6FBB"/>
				</linearGradient>
				<path style="fill:url(#SVGID_00000070084432855915439400000017556910837374722223_);" d="M1883.394,2595.284
					c-0.183,13.737-8.029,25.262-18.399,25.791l-726.797,37.094c-12.458,0.636-22.548-11.087-22.504-26.191l0.014-4.927
					c0.044-15.112,10.214-27.813,22.682-28.362l727.316-31.981c10.376-0.456,17.931,10.35,17.747,24.094L1883.394,2595.284z"/>
				
					<linearGradient id="SVGID_00000145018449948276787420000013480026053510353066_" gradientUnits="userSpaceOnUse" x1="899.3326" y1="2637.8987" x2="1070.9064" y2="2637.8987">
					<stop  offset="0" style="stop-color:#FF9085"/>
					<stop  offset="1" style="stop-color:#FB6FBB"/>
				</linearGradient>
				<path style="fill:url(#SVGID_00000145018449948276787420000013480026053510353066_);" d="M1070.906,2585.48
					c0.034-14.468-13.602-25.668-30.517-25.009l-109.554,4.274c-17.423,0.679-31.503,13.201-31.503,27.961v97.729
					c0,14.715,14.051,25.841,31.438,24.859l109.382-6.176c16.881-0.953,30.521-13.412,30.554-27.837L1070.906,2585.48z"/>
			</g>
			<path style="opacity:0.9;fill:#FFFFFF;" d="M1036.092,2617.021l-72.83-31.168c-8.375-2.898-18.339,3.14-18.428,11.225
				l-0.914,83.18c-0.108,9.742,12.493,13.97,21.169,7.105l73.573-51.97C1045.8,2629.723,1044.395,2619.894,1036.092,2617.021z"/>
		</g>
		<g>
			
				<linearGradient id="SVGID_00000085245601158275374930000011742745511475175316_" gradientUnits="userSpaceOnUse" x1="3052.0007" y1="706.296" x2="2540.2876" y2="1149.0137">
				<stop  offset="0" style="stop-color:#FFC444"/>
				<stop  offset="0.9964" style="stop-color:#F36F56"/>
			</linearGradient>
			<path style="fill:url(#SVGID_00000085245601158275374930000011742745511475175316_);" d="M2741.529,1410.06h1.365
				c0.052,0,0.133-0.063,0.133,0.271c0,24.595-101.899,44.18-227.572,44.18c-13.172,0-26.078-0.395-38.634-0.82
				c-107.28-3.583-188.938-21.254-188.938-43.268c0-0.334,0.081-0.362,0.133-0.362h-1.012v-364.318
				c0-108.219,63.223-199.986,149.753-230.624c20.052-7.105,41.83-11.089,63.972-11.089h29.45
				c117.561,0,211.348,108.382,211.348,241.713V1410.06z"/>
			
				<linearGradient id="SVGID_00000174592868610121010930000001588341324655273643_" gradientUnits="userSpaceOnUse" x1="2664.4758" y1="606.9279" x2="2451.3582" y2="791.3105">
				<stop  offset="0" style="stop-color:#311944"/>
				<stop  offset="1" style="stop-color:#893976"/>
			</linearGradient>
			<path style="fill:url(#SVGID_00000174592868610121010930000001588341324655273643_);" d="M2414.41,645.635v182.498h0.697
				c6.948,6.887,48.69,9.109,99.168,9.109s92.22-2.223,99.168-9.109h0.682V645.635H2414.41z"/>
			
				<linearGradient id="SVGID_00000066511009590876237310000017803176741659330748_" gradientUnits="userSpaceOnUse" x1="2598.8123" y1="571.791" x2="2478.8694" y2="675.5617">
				<stop  offset="0" style="stop-color:#311944"/>
				<stop  offset="1" style="stop-color:#893976"/>
			</linearGradient>
			
				<ellipse style="fill:url(#SVGID_00000066511009590876237310000017803176741659330748_);" cx="2514.275" cy="644.93" rx="100.203" ry="10.628"/>
			
				<linearGradient id="SVGID_00000114794924755472876040000006319677712825895814_" gradientUnits="userSpaceOnUse" x1="2696.9324" y1="992.1708" x2="2435.9272" y2="1217.9838">
				<stop  offset="0.494" style="stop-color:#EBEFF2"/>
				<stop  offset="1" style="stop-color:#FFFFFF"/>
			</linearGradient>
			<path style="fill:url(#SVGID_00000114794924755472876040000006319677712825895814_);" d="M2682.878,1192.952
				c-0.346,20.112-15.061,36.948-32.878,37.46c-91.465,2.639-182.977,2.639-274.443,0c-17.814-0.512-32.526-17.348-32.878-37.46
				c-0.448-27.315-0.898-54.63-1.345-81.944c-0.338-20.116,14.049-35.884,32.166-35.363c92.838,2.678,185.72,2.678,278.558,0
				c18.117-0.521,32.506,15.246,32.166,35.363C2683.776,1138.322,2683.326,1165.637,2682.878,1192.952z"/>
			
				<linearGradient id="SVGID_00000075847778821576359280000005503799889761629098_" gradientUnits="userSpaceOnUse" x1="2688.136" y1="925.0966" x2="2290.6628" y2="1268.9774">
				<stop  offset="0" style="stop-color:#FF9085"/>
				<stop  offset="1" style="stop-color:#FB6FBB"/>
			</linearGradient>
			<path style="opacity:0.3;fill:url(#SVGID_00000075847778821576359280000005503799889761629098_);" d="M2476.822,1453.507
				c-107.28-3.583-188.938-21.162-188.938-43.176c0-0.334,0.081-0.271,0.133-0.271h-1.012v-364.318
				c0-108.219,63.223-199.829,149.753-230.467c-18.286,22.075-104.785,135.82-60.743,259.313
				c17.188,48.219,12.908,102.389,7.713,154.859C2374.144,1326.128,2361.885,1416.918,2476.822,1453.507z"/>
		</g>
		<g>
			
				<linearGradient id="SVGID_00000015328377306059110730000007885885840170679172_" gradientUnits="userSpaceOnUse" x1="2546.3879" y1="2404.3032" x2="2599.0403" y2="2502.509">
				<stop  offset="0" style="stop-color:#FFC444"/>
				<stop  offset="0.463" style="stop-color:#FFC244"/>
				<stop  offset="0.6297" style="stop-color:#FEBB46"/>
				<stop  offset="0.7486" style="stop-color:#FCB048"/>
				<stop  offset="0.8447" style="stop-color:#FA9F4C"/>
				<stop  offset="0.9261" style="stop-color:#F78951"/>
				<stop  offset="0.9964" style="stop-color:#F36F56"/>
			</linearGradient>
			<path style="fill:url(#SVGID_00000015328377306059110730000007885885840170679172_);" d="M2583.01,2458.861
				c0,0,0-14.351-8.15-22.856c-8.15-8.504-14.528-24.45-14.351-15.768c0.177,8.682,2.658,19.666,2.658,19.666
				s-9.929,3.012-2.661,13.643C2567.773,2464.176,2586.071,2473.681,2583.01,2458.861z"/>
			
				<linearGradient id="SVGID_00000138563914039909211070000007619681640730024881_" gradientUnits="userSpaceOnUse" x1="1924.5569" y1="3105.0144" x2="1879.6908" y2="2957.0769" gradientTransform="matrix(-0.993 0.1177 0.1177 0.993 4409.1147 -89.6996)">
				<stop  offset="0" style="stop-color:#444B8C"/>
				<stop  offset="0.9964" style="stop-color:#26264F"/>
			</linearGradient>
			<path style="fill:url(#SVGID_00000138563914039909211070000007619681640730024881_);" d="M2898.469,3143.758
				c5.54,8.838,4.677,12.975,3.724,14.854c-2.793,5.515-11.326,1.476-32.014,6.145c-2.427,0.549-7.049,1.672-13.044,0.906
				c-5.136-0.658-11.324-2.708-11.212-4.077c0.041-0.499,0.911-0.787,1.241-0.894c5.684-1.847,40.905-16.818,40.905-16.818
				L2898.469,3143.758z"/>
			
				<linearGradient id="SVGID_00000021107966355016076410000004175793358596789637_" gradientUnits="userSpaceOnUse" x1="1885.8785" y1="3076.208" x2="1885.8785" y2="2838.5334" gradientTransform="matrix(-0.993 0.1177 0.1177 0.993 4409.1147 -89.6996)">
				<stop  offset="0" style="stop-color:#FFC444"/>
				<stop  offset="0.9964" style="stop-color:#F36F56"/>
			</linearGradient>
			<path style="fill:url(#SVGID_00000021107966355016076410000004175793358596789637_);" d="M2899.121,3122.989l-1.072,21.163
				c0,0-8.283,7.257-11.436-0.172c-2.268-5.344-3.776-20.23-3.776-20.23L2899.121,3122.989z"/>
			
				<linearGradient id="SVGID_00000083779222080040616500000016541115196875125917_" gradientUnits="userSpaceOnUse" x1="1973.39" y1="3076.208" x2="1973.39" y2="2838.5295" gradientTransform="matrix(-0.993 0.1177 0.1177 0.993 4409.1147 -89.6996)">
				<stop  offset="0" style="stop-color:#FFC444"/>
				<stop  offset="0.9964" style="stop-color:#F36F56"/>
			</linearGradient>
			<polygon style="fill:url(#SVGID_00000083779222080040616500000016541115196875125917_);" points="2794.587,3144.338 
				2805.874,3167.396 2818.422,3164.029 2813.143,3142.138 			"/>
			
				<linearGradient id="SVGID_00000024692469565514640300000009939329322502823601_" gradientUnits="userSpaceOnUse" x1="1989.9158" y1="3085.1924" x2="1945.0496" y2="2937.2544" gradientTransform="matrix(-0.993 0.1177 0.1177 0.993 4409.1147 -89.6996)">
				<stop  offset="0" style="stop-color:#444B8C"/>
				<stop  offset="0.9964" style="stop-color:#26264F"/>
			</linearGradient>
			<path style="fill:url(#SVGID_00000024692469565514640300000009939329322502823601_);" d="M2811.228,3180.185
				c5.411-7.975,10.995-7.886,11.581-13.039c0.461-4.049-2.47-8.649-6.319-10.111c-5.41-2.053-11.211,2.643-12.522,3.704
				c-8.904,7.209-5.287,16.649-13.854,21.801c-1.725,1.037-4.503,2.237-7.235,5.391c-1.16,1.34-4.033,4.657-3.072,6.635
				c1.112,2.288,6.782,1.611,12.173,0.969c6.469-0.771,9.704-1.154,12.617-3.425
				C2808.633,3188.963,2807.052,3186.34,2811.228,3180.185z"/>
			
				<linearGradient id="SVGID_00000096756358612443588150000008009797166193033354_" gradientUnits="userSpaceOnUse" x1="1865.3282" y1="2563.3562" x2="1843.5012" y2="3054.4658" gradientTransform="matrix(-0.993 0.1177 0.1177 0.993 4409.1147 -89.6996)">
				<stop  offset="0" style="stop-color:#311944"/>
				<stop  offset="1" style="stop-color:#A03976"/>
			</linearGradient>
			<path style="fill:url(#SVGID_00000096756358612443588150000008009797166193033354_);" d="M2915.336,2617.772
				c2.702,48.681,0.089,90.752-4.276,125.282c-4.696,37.146-8.672,43.827-8.988,69.27c-0.687,55.365,17.668,61.761,26.064,123.58
				c9.273,68.26-4.441,124.26-9.884,145.64c-4.759,18.69-10.101,33.907-14.189,44.508c-5.832,6.001-15.616,4.693-25.92,3.473
				c-8.888-61.875-18.392-120.01-27.281-181.884c-19.793-92.549-39.585-185.095-59.377-277.643
				C2832.768,2652.589,2874.052,2635.183,2915.336,2617.772z"/>
			
				<linearGradient id="SVGID_00000095334972723079084640000015650940573540281235_" gradientUnits="userSpaceOnUse" x1="1865.3282" y1="2563.3562" x2="1843.5012" y2="3054.4658" gradientTransform="matrix(-0.993 0.1177 0.1177 0.993 4409.1147 -89.6996)">
				<stop  offset="0" style="stop-color:#FF9085"/>
				<stop  offset="1" style="stop-color:#FB6FBB"/>
			</linearGradient>
			<path style="opacity:0.3;fill:url(#SVGID_00000095334972723079084640000015650940573540281235_);" d="M2878.142,3129.525
				c-8.888-61.875-18.392-120.01-27.281-181.884c-19.793-92.549-39.585-185.095-59.377-277.643
				c41.284-17.41,82.568-34.816,123.852-52.226c0.178,3.224,0.274,6.338,0.408,9.507c-55.25,56.638-63.508,98.562-60.611,126.45
				c3.514,33.825,23.435,49.086,23.886,98.514c0.324,35.341-9.724,42.405-7.092,74.103c3.39,40.816,22.81,62.313,33.297,85.193
				c10.135,22.112,15.747,54.157,3.624,101.402c-1.699,4.916-3.324,9.323-4.786,13.112
				C2898.231,3132.052,2888.446,3130.747,2878.142,3129.525z"/>
			
				<linearGradient id="SVGID_00000041992046382065916550000004375027871156303507_" gradientUnits="userSpaceOnUse" x1="2198.0723" y1="2772.28" x2="1797.9041" y2="2754.0903" gradientTransform="matrix(-0.993 0.1177 0.1177 0.993 4409.1147 -89.6996)">
				<stop  offset="0" style="stop-color:#311944"/>
				<stop  offset="1" style="stop-color:#A03976"/>
			</linearGradient>
			<path style="fill:url(#SVGID_00000041992046382065916550000004375027871156303507_);" d="M2844.083,2670.787
				c-26.834,55.266-40.724,98.165-48.01,124.549c-4.444,16.095-8.295,32.796-7.739,54.233c0.683,26.262,7.661,47.311,13.306,60.689
				c8.021,17.075,15.652,37.134,21.294,60.04c18.3,74.284,5.889,138.747-4.9,176.121c-7.31,3.417-14.621,6.837-21.931,10.255
				c-21.041-46.372-47.586-112.429-69.539-194.784c-11.991-44.98-21.228-80.269-25.058-125.751
				c-4.041-47.971-3.507-124.424,28.233-218.348C2767.854,2635.456,2805.968,2653.122,2844.083,2670.787z"/>
			
				<linearGradient id="SVGID_00000110462926259624873130000012476778743713120161_" gradientUnits="userSpaceOnUse" x1="5601.7036" y1="2364.2095" x2="5844.6865" y2="2817.415" gradientTransform="matrix(-1 0 0 1 8611.2139 0)">
				<stop  offset="0" style="stop-color:#FF9085"/>
				<stop  offset="1" style="stop-color:#FB6FBB"/>
			</linearGradient>
			<path style="fill:url(#SVGID_00000110462926259624873130000012476778743713120161_);" d="M2792.227,2256.936
				c-47.278,12.213-83.08,23.813-97.3,50.283c-15.019,27.959,14.012,45.661,26.28,103.256
				c18.785,88.176-29.696,125.716-7.514,214.23c7.474,29.824,19.693,52.357,27.921,65.666
				c16.546,11.357,42.609,26.564,76.998,35.485c50.042,12.981,73.212,1.103,138.953-0.581c107.53-2.757,126.127,26.955,172.897,3.86
				c47.268-23.342,78.317-78.4,66.107-99.816c-7.314-12.824-26.204-2.873-55.644-16.922c-37.941-18.106-34.249-47.419-65.662-69.697
				c-45.119-32-82.721,7.21-121.354-20.666c-39.079-28.199-49.729-103.767-37.965-150.253c7.684-30.364,5.211-62.486,10.218-93.403
				c0.417-2.568,0.576-6.624-1.366-11.047c-7.423-16.915-39.561-17.616-63.834-17.921
				C2823.943,2248.946,2796.114,2255.93,2792.227,2256.936z"/>
			
				<linearGradient id="SVGID_00000049903243920678203680000009498871693258877318_" gradientUnits="userSpaceOnUse" x1="669.8447" y1="2077.3066" x2="891.48" y2="2533.0642" gradientTransform="matrix(0.9575 -0.2886 0.2886 0.9575 1409.0344 536.33)">
				<stop  offset="0" style="stop-color:#FF9085"/>
				<stop  offset="1" style="stop-color:#FB6FBB"/>
			</linearGradient>
			<path style="opacity:0.3;fill:url(#SVGID_00000049903243920678203680000009498871693258877318_);" d="M3122.045,2695.804
				c-15.635-8.646-9.931-37.304-33.109-50.344c-21.512-12.104-35.903,7.25-66.685,0.536c-39.48-8.613-40.54-45.85-78.419-54.623
				c-27.238-6.307-33.839,11.292-72.049,15.196c-38.144,3.899-89.535-7.717-124.607-45.588
				c-14.903-16.092-23.954-33.827-29.458-50.46c-7.481,33.85-15.93,66.675-4.024,114.184c7.474,29.824,19.693,52.357,27.921,65.666
				c16.546,11.357,42.609,26.564,76.998,35.485c50.041,12.981,73.212,1.104,138.953-0.58c107.53-2.757,126.127,26.955,172.897,3.86
				c30.21-14.918,53.726-42.769,63.626-66.535C3154.339,2696.875,3133.393,2702.078,3122.045,2695.804z"/>
			
				<linearGradient id="SVGID_00000054229724322387594400000010026393992742984089_" gradientUnits="userSpaceOnUse" x1="0.2536" y1="1817.4583" x2="-50.9361" y2="1900.2651" gradientTransform="matrix(-0.9811 -0.193 -0.193 0.9811 3121.1699 432.7031)">
				<stop  offset="0" style="stop-color:#FFC444"/>
				<stop  offset="0.463" style="stop-color:#FFC244"/>
				<stop  offset="0.6297" style="stop-color:#FEBB46"/>
				<stop  offset="0.7486" style="stop-color:#FCB048"/>
				<stop  offset="0.8447" style="stop-color:#FA9F4C"/>
				<stop  offset="0.9261" style="stop-color:#F78951"/>
				<stop  offset="0.9964" style="stop-color:#F36F56"/>
			</linearGradient>
			<path style="fill:url(#SVGID_00000054229724322387594400000010026393992742984089_);" d="M2788.319,2184.003
				c0,0-18.578,21.226-23.367,38.047c-4.789,16.82,14.698,20.068,14.698,20.068l-3.228,10.563
				c-2.755,9.017-10.557,15.569-19.914,16.724l-8.231,1.017c0,0,46.971,22.137,78.428,9.369l-7.603-2.579
				c-10.766-3.652-17.465-14.386-16.016-25.663l0.604-4.702C2803.69,2246.848,2824.655,2195.826,2788.319,2184.003z"/>
			
				<linearGradient id="SVGID_00000060728104164684782710000012834308864621267638_" gradientUnits="userSpaceOnUse" x1="5840.5347" y1="2236.1619" x2="6083.5186" y2="2689.3689" gradientTransform="matrix(-1 0 0 1 8611.2139 0)">
				<stop  offset="0" style="stop-color:#FF9085"/>
				<stop  offset="1" style="stop-color:#FB6FBB"/>
			</linearGradient>
			<path style="fill:url(#SVGID_00000060728104164684782710000012834308864621267638_);" d="M2702.557,2297.919
				c-8.798,6.706-21.916,18.233-32.745,35.754c-30.806,49.844-11.781,97.528-39.437,117.988
				c-7.908,5.852-22.281,11.434-49.979,4.779l-9.669,6.516c0,0-5.856,64.91,71.624,59.215
				c77.481-5.692,105.925-105.728,105.925-105.728L2702.557,2297.919z"/>
			
				<linearGradient id="SVGID_00000036948890852031725720000002028719261025756053_" gradientUnits="userSpaceOnUse" x1="1208.9677" y1="1884.899" x2="1360.3005" y2="2269.4343" gradientTransform="matrix(0.9797 0.2004 -0.2004 0.9797 2117.6057 73.0059)">
				<stop  offset="0" style="stop-color:#444B8C"/>
				<stop  offset="0.9964" style="stop-color:#26264F"/>
			</linearGradient>
			<path style="fill:url(#SVGID_00000036948890852031725720000002028719261025756053_);" d="M2797.395,2209.366
				c2.631,0.096,5.179-2.951,6.846-1.756c1.75,1.251,0.965,6.045-1.067,9.232c-1.667,2.612-4.031,3.919-5.33,4.504
				c1.679,3.025,3.724,7.66,4.113,13.454c0.862,12.813-7.005,22.094-10.479,27.66c-15.668,25.092-1.271,69.449,17.511,93.225
				c15.262,19.327,24.177,13.357,32.835,28.686c16.854,29.835-14.544,56.658-8.548,94.819c9.119,58.025,95.754,85.327,99.351,86.414
				c1.417,0.429,2.37,0.705,3.848,1.125c39.005,11.074,98.123,27.856,144.468,0.3c34.674-20.616,54.321-61.37,56.394-99.088
				c0.546-9.921,2.034-47.653-24.77-81.8c-4.254-5.419-29.455-37.446-68.091-42.42c-20.463-2.635-25.458,4.089-40.591-2.248
				c-20.718-8.677-31.597-29.758-38.346-42.834c-12.414-24.055-5.719-28.073-15.256-40.314
				c-18.688-23.983-45.637-10.129-66.073-31.767c-20.145-21.328-3.619-45.016-23.287-63.743
				c-20.291-19.315-63.608-18.601-75.066,0.139C2776.009,2179.057,2789.327,2209.07,2797.395,2209.366z"/>
		</g>
		<g>
			
				<linearGradient id="SVGID_00000151504031962807693810000004373694640406432928_" gradientUnits="userSpaceOnUse" x1="-3466.4124" y1="2543.7661" x2="-3397.7686" y2="2269.1897" gradientTransform="matrix(1 0 0 1 6113.7803 0)">
				<stop  offset="0" style="stop-color:#AA80F9"/>
				<stop  offset="0.9964" style="stop-color:#6165D7"/>
			</linearGradient>
			<path style="fill:url(#SVGID_00000151504031962807693810000004373694640406432928_);" d="M2691.108,2270.447
				c5.209,1.969,84.656,33.564,100.987,116.484c1.319,6.699,14.083,77.94-34.23,128.268
				c-54.175,56.435-158.494,55.036-199.902,7.857c-9.656-11.002-14.75-23.196-17.604-33.442l0,0l10.91-28.985
				c13.312-16.072,31.438-19.88,41.118-22.266c23.865-5.881,41.882,4.749,55.549-6.76c7.562-6.366,9.065-15.531,10.407-23.717
				c4.571-27.883-11.167-45.046-12.312-62.24c-0.857-12.854-5.355-41.019,11.422-59.385
				C2668.077,2274.632,2682.792,2271.465,2691.108,2270.447z"/>
			
				<linearGradient id="SVGID_00000050655185847673730880000007004017077870069904_" gradientUnits="userSpaceOnUse" x1="-3681.5596" y1="2481.7949" x2="-3648.9971" y2="2510.7593" gradientTransform="matrix(0.9902 -0.14 0.14 0.9902 6010.9375 206.9384)">
				<stop  offset="0" style="stop-color:#444B8C"/>
				<stop  offset="0.9964" style="stop-color:#26264F"/>
			</linearGradient>
			<path style="fill:url(#SVGID_00000050655185847673730880000007004017077870069904_);" d="M2722.065,3194.563
				c0.927-5.105,17.412-9.725,25.575-2.888c4.053,3.394,6.844,10.277,4.499,13.385c-0.853,1.131,2.641,3.119-0.707,3.158
				C2740.326,3208.348,2721.143,3199.635,2722.065,3194.563z"/>
			
				<linearGradient id="SVGID_00000053527799528643031540000014564772649750922151_" gradientUnits="userSpaceOnUse" x1="-4575.459" y1="2510.7961" x2="-4575.459" y2="2454.0696" gradientTransform="matrix(0.9902 -0.14 0.14 0.9902 6927.1387 77.4224)">
				<stop  offset="0" style="stop-color:#FFC444"/>
				<stop  offset="0.9964" style="stop-color:#F36F56"/>
			</linearGradient>
			<path style="fill:url(#SVGID_00000053527799528643031540000014564772649750922151_);" d="M2739.344,3196.42l16.954-2.396
				c-7.854-9.457-6.4-39.573-6.4-39.573l-18.031,4.024c0,0,2.055,8.267,5.549,20.46
				C2738.613,3183.109,2739.147,3189.642,2739.344,3196.42z"/>
			
				<linearGradient id="SVGID_00000125604234169002263430000008348761758048441754_" gradientUnits="userSpaceOnUse" x1="-3678.2854" y1="2478.1155" x2="-3645.7234" y2="2507.0796" gradientTransform="matrix(0.9902 -0.14 0.14 0.9902 6010.9375 206.9384)">
				<stop  offset="0" style="stop-color:#444B8C"/>
				<stop  offset="0.9964" style="stop-color:#26264F"/>
			</linearGradient>
			<path style="fill:url(#SVGID_00000125604234169002263430000008348761758048441754_);" d="M2737.84,3194.332
				c0,0,20.412-4.703,22.62-0.654c2.208,4.049,3.922,14.89-9.028,14.54C2738.481,3207.868,2736.69,3197.765,2737.84,3194.332z"/>
			
				<linearGradient id="SVGID_00000014625717207594392640000015202250803234923175_" gradientUnits="userSpaceOnUse" x1="-3631.3481" y1="3197.8345" x2="-3598.7842" y2="3226.8" gradientTransform="matrix(1 0 0 1 6113.7803 0)">
				<stop  offset="0" style="stop-color:#444B8C"/>
				<stop  offset="0.9964" style="stop-color:#26264F"/>
			</linearGradient>
			<path style="fill:url(#SVGID_00000014625717207594392640000015202250803234923175_);" d="M2489.435,3213.704
				c1.632-4.925,18.602-7.192,25.727,0.72c3.537,3.928,5.339,11.133,2.581,13.882c-1.003,1.001,2.178,3.459-1.142,3.029
				C2505.588,3229.91,2487.813,3218.597,2489.435,3213.704z"/>
			
				<linearGradient id="SVGID_00000054957924995860804020000017209886817090716560_" gradientUnits="userSpaceOnUse" x1="-4525.291" y1="3226.8579" x2="-4525.291" y2="3170.1289" gradientTransform="matrix(1 0 0 1 7039.0908 0)">
				<stop  offset="0" style="stop-color:#FFC444"/>
				<stop  offset="0.9964" style="stop-color:#F36F56"/>
			</linearGradient>
			<path style="fill:url(#SVGID_00000054957924995860804020000017209886817090716560_);" d="M2506.284,3217.962h17.122
				c-6.454-10.463-0.798-40.079-0.798-40.079l-18.416,1.461c0,0,0.877,8.472,2.631,21.035
				C2507.423,3204.68,2507.038,3211.223,2506.284,3217.962z"/>
			
				<linearGradient id="SVGID_00000123442228833955019510000012105071750276508051_" gradientUnits="userSpaceOnUse" x1="5878.4004" y1="3252.8721" x2="5666.061" y2="2395.5547" gradientTransform="matrix(-1 0 0 1 8389.5273 0)">
				<stop  offset="0" style="stop-color:#444B8C"/>
				<stop  offset="0.9964" style="stop-color:#26264F"/>
			</linearGradient>
			<path style="fill:url(#SVGID_00000123442228833955019510000012105071750276508051_);" d="M2461.909,2570.454
				c-7.931,26.193-19.259,68.469-26.551,121.509c-20.798,151.288,23.407,156.114,15.152,323.761
				c-2.635,53.513,46.361,176.91,50.679,179.635c2.09,0.202,4.357,0.339,6.776,0.266c4.261-0.129,10.27-0.782,17.257-2.877
				c7.761-1.337,35.744-77.13,29.258-122.193c-4.59-31.895-3.259-66.123-0.598-134.582c0.431-11.092,28.812-215.812,28.812-215.812
				l0,0c8.633,75.776,18.561,140.161,27.168,190.079c27.654,160.38,117.567,257.452,122.257,259.009
				c0.927,0.372,9.364,3.437,16.261-1.109c3.071-2.024,4.115-4.635,4.115-4.635c2.405-1.884-0.709-160.121-28.134-279.209
				c-39.807-172.854-22.474-213.299-35.085-290.507C2678.365,2526.984,2461.909,2570.454,2461.909,2570.454z"/>
			
				<linearGradient id="SVGID_00000011744444405148397320000010474502465219523742_" gradientUnits="userSpaceOnUse" x1="6272.437" y1="2613.7393" x2="5735.5171" y2="2240.3311" gradientTransform="matrix(-1 0 0 1 8611.2139 0)">
				<stop  offset="0" style="stop-color:#AA80F9"/>
				<stop  offset="0.9964" style="stop-color:#6165D7"/>
			</linearGradient>
			<path style="fill:url(#SVGID_00000011744444405148397320000010474502465219523742_);" d="M2451.248,2596.567
				c23.904,12.268,85.472,34.252,158.848,23.331c32.532-4.844,58.729-15.478,77.504-25.223c0.573-0.287,1.146-0.574,1.691-0.86
				c-19.061-57.641-4.127-88.482,2.923-116.915c10.06-40.529,10.204-37.462,18.488-69.679
				c13.643-53.141,15.879-107.428,6.507-118.52c-25.281-29.953-70.855-31.042-94.501-31.758
				c-26.426-0.774-87.192-10.089-120.641,20.007c-0.574,0.516,6.277,4.185,2.894,8.14c-3.124,3.669-13.872,16.539-23.617,33.908
				c-7.051,12.583-13.443,27.259-19.864,49.1c-11.322,38.551-14.589,71.398-15.678,85.701c-0.344,4.729-0.66,9.316-0.946,13.729
				C2440.412,2538.554,2446.06,2572.835,2451.248,2596.567z"/>
			
				<linearGradient id="SVGID_00000135650439468518954080000014790107708217759634_" gradientUnits="userSpaceOnUse" x1="-3628.0737" y1="3194.1553" x2="-3595.5107" y2="3223.1201" gradientTransform="matrix(1 0 0 1 6113.7803 0)">
				<stop  offset="0" style="stop-color:#444B8C"/>
				<stop  offset="0.9964" style="stop-color:#26264F"/>
			</linearGradient>
			<path style="fill:url(#SVGID_00000135650439468518954080000014790107708217759634_);" d="M2505.088,3215.684
				c0,0,20.869-1.799,22.488,2.519c1.619,4.317,1.799,15.292-10.974,13.133C2503.828,3229.177,2503.468,3218.922,2505.088,3215.684z
				"/>
			<g>
				
					<linearGradient id="SVGID_00000027572232969720054290000005291343024284978571_" gradientUnits="userSpaceOnUse" x1="2544.9224" y1="2171.9368" x2="2702.9204" y2="2370.7185">
					<stop  offset="0" style="stop-color:#FFC444"/>
					<stop  offset="0.9964" style="stop-color:#F36F56"/>
				</linearGradient>
				<path style="fill:url(#SVGID_00000027572232969720054290000005291343024284978571_);" d="M2624.626,2261.344
					c-0.571-8.553-1.337-14.635-2.801-23.798c-0.234-1.472-0.48-2.932-0.733-4.381c2.498-37.881-4.157-64.786-10.719-66.278
					c-2.055-0.467-12.229-0.292-15.227,0.73c-0.284,0.097-0.555,0.202-0.555,0.202l-4.687,2.807
					c-3.375,2.197-5.193,3.939-12.375,16.781c-1.715,3.067-9.499,17.304-5.358,32.843c3.048,11.448,18.375,18.692,21.016,20.107
					c-0.799,5.961-1.599,11.923-2.398,17.884c-35.923-5.19-45.261-3.146-46.274,0.149c-2.015,6.537,26.43,15.976,61.645,21.964
					c10.489,1.783,21.061,1.871,31.571,0.214c19.793-3.122,30.865-4.925,31.963-10.12
					C2670.33,2267.429,2662.197,2262.513,2624.626,2261.344z"/>
				<path style="fill:#26264F;" d="M2581.093,2156.871c-0.116,11.745,5.253,24.359,8.045,26.412c0.36,0.265,2.388,1.911,4.192,4.702
					c0.246,0.38,0.461,0.824,0.651,1.396c2.475,7.435-9.407,15.989-7.179,19.333c1.616,2.426,9.656-0.684,10.579,1.404
					c0.87,1.965-5.829,5.924-4.842,8.276c0.745,1.776,4.856,0.214,7.4,2.954c1.268,1.365,0.877,2.428,2.185,6.566
					c0.74,2.34,1.784,4.904,2.6,6.333c3.969,6.948,15.43,9.619,17.678,6.888c0.625-0.76,0.106-1.414,0.768-3.986
					c0,0,0.615-2.385,2.315-5.128c2.429-3.92,8.207-6.669,14.054-10.764c10.827-7.582,13.829-14.128,14.733-16.341
					c0.321-0.788,0.523-1.384,0.668-1.813c2.903-8.619,3.083-21.334-0.706-29.205c-6.347-13.184-21.135-7.159-33.001-20.296
					c-13.691-15.156-5.15-35.515-12.657-37.875C2600.303,2113.129,2581.307,2135.155,2581.093,2156.871z"/>
				
					<linearGradient id="SVGID_00000067958181111067929230000003187073758974353034_" gradientUnits="userSpaceOnUse" x1="-2231.1672" y1="2057.5186" x2="-2054.8228" y2="2279.3823" gradientTransform="matrix(0.9628 0.2703 -0.2703 0.9628 5269.4053 769.8222)">
					<stop  offset="0" style="stop-color:#FFC444"/>
					<stop  offset="0.9964" style="stop-color:#F36F56"/>
				</linearGradient>
				<path style="fill:url(#SVGID_00000067958181111067929230000003187073758974353034_);" d="M2591.061,2206.01
					c2.931-3.917,7.94-0.134,7.901,4.983c-0.037,5.117-5.065,10.372-9.862,9.299
					C2584.302,2219.219,2587.117,2211.283,2591.061,2206.01z"/>
			</g>
			<g>
				
					<linearGradient id="SVGID_00000029030967289901163070000006313788621233170851_" gradientUnits="userSpaceOnUse" x1="5900.3535" y1="2484.561" x2="5932.7778" y2="2484.561" gradientTransform="matrix(-1 0 0 1 8611.2139 0)">
					<stop  offset="0.0036" style="stop-color:#6165D7"/>
					<stop  offset="1" style="stop-color:#AA80F9"/>
				</linearGradient>
				<path style="fill:url(#SVGID_00000029030967289901163070000006313788621233170851_);" d="M2680.857,2558.11
					c0.054,0,0.114-0.003,0.168-0.009c0.847-0.093,1.453-0.856,1.357-1.699c-3.105-27.967,2.696-48.309,7.813-66.259
					c1.255-4.396,2.474-8.662,3.513-12.875c5.693-22.955,8.186-31.828,10.828-41.223c1.735-6.165,3.507-12.482,6.276-23.103
					c0.21-0.823-0.282-1.66-1.099-1.874c-0.829-0.234-1.669,0.282-1.88,1.099c-2.756,10.593-4.528,16.896-6.258,23.045
					c-2.648,9.419-5.146,18.313-10.845,41.316c-1.039,4.18-2.246,8.41-3.489,12.77c-5.195,18.223-11.086,38.875-7.909,67.445
					C2679.416,2557.528,2680.083,2558.11,2680.857,2558.11z"/>
			</g>
			
				<linearGradient id="SVGID_00000112600947577710617020000014420629219215816886_" gradientUnits="userSpaceOnUse" x1="5923.6133" y1="2534.8931" x2="6167.9639" y2="2534.8931" gradientTransform="matrix(-1 0 0 1 8611.2139 0)">
				<stop  offset="0" style="stop-color:#AA80F9"/>
				<stop  offset="0.9964" style="stop-color:#6165D7"/>
			</linearGradient>
			<path style="opacity:0.4;fill:url(#SVGID_00000112600947577710617020000014420629219215816886_);" d="M2451.248,2596.567
				c23.904,12.268,85.472,34.252,158.848,23.331c32.532-4.844,58.729-15.478,77.504-25.223
				c-8.513-6.621-19.004-17.714-36.344-36.574c-21.01-22.815-45.631-14.302-60.105-5.704c-10.434,6.163-23.361,6.335-33.938,0.488
				c-10.604-5.876-17.312-16.911-17.627-29.007c-0.172-5.56,0.087-11.895,0.774-19.06c4.958-51.908-66.956-56.322-66.956-56.322
				c-10.146-5.274-19.778,3.239-28.548,19.032C2440.412,2538.554,2446.06,2572.835,2451.248,2596.567z"/>
			
				<linearGradient id="SVGID_00000176737469612519391630000002367120498989030579_" gradientUnits="userSpaceOnUse" x1="6356.647" y1="2369.9175" x2="6405.3672" y2="2431.2134" gradientTransform="matrix(-1 0 0 1 8611.2139 0)">
				<stop  offset="0" style="stop-color:#FFC444"/>
				<stop  offset="0.9964" style="stop-color:#F36F56"/>
			</linearGradient>
			<path style="fill:url(#SVGID_00000176737469612519391630000002367120498989030579_);" d="M2199.847,2365.334
				c2.893,0.278,6.395,3.208,8.855,4.604c3.499,1.985,7.022,3.933,10.589,5.791c6.886,3.587,14.178,6.249,22.054,6.103
				c-0.219-1.123-0.608-2.248-1.052-3.322c-1.333-3.121-3.093-5.817-2.042-6.753c1.503-1.362,8.115,1.447,14.216,7.292
				c2.469,2.327,4.824,5.193,6.753,8.456c3.113,5.305,2.588,8.207,5.193,12.253c3.873,3.471,6.779,4.234,6.779,4.234v1.107
				l-0.438,1.362c3.462,2.639,7.373,4.199,10.436,5.221c-5.391,1.447-10.657,2.922-16.021,4.398l-3.726,6.214
				c0,0-20.322-4.256-32.581-11.691c-5.732-3.49-7.706-7.803-8.188-11.379c-0.341-2.384,0.006-4.427,0.318-5.732
				c0.255-0.936,0.485-1.504,0.485-1.504s-16.74-6.952-23.352-21.992C2197.126,2367.727,2197.029,2365.064,2199.847,2365.334z"/>
			
				<linearGradient id="SVGID_00000183970833183521979930000015714492406897125044_" gradientUnits="userSpaceOnUse" x1="-3320.7922" y1="2643.4551" x2="-3833.9216" y2="2286.5923" gradientTransform="matrix(1 0 0 1 6113.7803 0)">
				<stop  offset="0" style="stop-color:#AA80F9"/>
				<stop  offset="0.9964" style="stop-color:#6165D7"/>
			</linearGradient>
			<path style="fill:url(#SVGID_00000183970833183521979930000015714492406897125044_);" d="M2270.761,2397.74
				c-9.557,6.688-14.683,15.771-17.34,21.568c7.027,16.493,22.964,47.118,55.949,69.687c54.085,37.006,133.388,38.25,188.625-3.951
				c65.993-50.418,77.02-147.101,49.301-188.505c-3.191-4.766-13.682-20.437-29.968-22.235c-10.285-1.136-24.284,3.105-46.401,29
				c-46.086,53.96-29.808,87.651-57.035,103.438C2373.065,2430.414,2312.393,2368.606,2270.761,2397.74z"/>
		</g>
		<g>
			<g>
				<path style="fill:#BFC8D6;" d="M2063.798,1030.341c0,13.622-23.463,32.298-37.077,32.064l-1045.278-18.023
					c-13.341-0.23-23.574-11.843-23.574-25.322V689.022c0-13.479,18.885-36.623,32.229-36.444l1036.913,26.582
					c13.614,0.185,24.508,11.503,24.508,25.123L2063.798,1030.341z"/>
				<path style="fill:#BFC8D6;" d="M1252.99,1034.637l-151.944-2.598l139.328,158.698c3.434,3.898,8.499,3.556,13.624,3.592
					c15.369,0.107,20.153-16.086,19.856-21.249L1252.99,1034.637z"/>
			</g>
			<g>
				<path style="fill:#FFFFFF;" d="M2063.187,1023.852c0,13.622-10.177,24.476-23.795,24.243l-1044.367-17.869
					c-13.345-0.228-23.382-11.344-23.382-24.824V676.374c0-13.48,10.47-24.263,23.815-24.083l1044.101,14.077
					c13.617,0.184,23.629,11.375,23.629,24.997V1023.852z"/>
				<path style="fill:#FFFFFF;" d="M1265.771,1020.421l-151.981-2.577l139.362,159.475c3.435,3.898,8.898,5.884,13.627,3.979
					c4.731-1.905,7.7-7.612,7.403-12.776L1265.771,1020.421z"/>
			</g>
			<g>
				<g>
					
						<linearGradient id="SVGID_00000057826445665799127910000009969085532102849458_" gradientUnits="userSpaceOnUse" x1="21.992" y1="868.4048" x2="188.5047" y2="868.4048" gradientTransform="matrix(1 -0.0064 0.0064 1 1001.0312 -29.0492)">
						<stop  offset="0" style="stop-color:#311944"/>
						<stop  offset="1" style="stop-color:#893976"/>
					</linearGradient>
					<path style="fill:url(#SVGID_00000057826445665799127910000009969085532102849458_);" d="M1116.179,761.224l21.782,44.138
						c0.807,1.636,2.355,2.778,4.138,3.054l48.159,7.46c4.496,0.697,6.325,6.278,3.095,9.445l-34.603,33.93
						c-1.282,1.257-1.859,3.079-1.543,4.872l8.527,48.41c0.795,4.517-3.875,7.911-7.903,5.744l-43.155-23.219
						c-1.598-0.86-3.501-0.878-5.088-0.047l-42.824,22.401c-3.994,2.089-8.699-1.391-7.962-5.889l7.894-48.213
						c0.293-1.786-0.307-3.617-1.602-4.896l-34.955-34.498c-3.26-3.218-1.508-8.759,2.965-9.378l47.968-6.638
						c1.778-0.246,3.309-1.361,4.095-2.983l21.208-43.772C1108.353,757.061,1114.147,757.107,1116.179,761.224z"/>
					
						<linearGradient id="SVGID_00000065796095262371899960000007688745799772811669_" gradientUnits="userSpaceOnUse" x1="157.1392" y1="781.8026" x2="-7.8482" y2="1074.2797" gradientTransform="matrix(1 -0.0064 0.0064 1 1001.0312 -29.0492)">
						<stop  offset="0" style="stop-color:#FFC444"/>
						<stop  offset="0.9964" style="stop-color:#F36F56"/>
					</linearGradient>
					<path style="fill:url(#SVGID_00000065796095262371899960000007688745799772811669_);" d="M1118.313,761.241l21.783,44.139
						c0.807,1.636,2.355,2.778,4.138,3.054l48.161,7.46c4.496,0.697,6.325,6.278,3.095,9.445l-34.605,33.931
						c-1.282,1.257-1.859,3.079-1.543,4.872l8.527,48.411c0.796,4.517-3.875,7.912-7.903,5.744l-43.157-23.219
						c-1.598-0.86-3.501-0.878-5.088-0.047l-42.826,22.402c-3.994,2.089-8.699-1.391-7.963-5.889l7.895-48.214
						c0.293-1.786-0.307-3.617-1.602-4.896l-34.956-34.498c-3.26-3.218-1.508-8.76,2.966-9.379l47.97-6.638
						c1.778-0.246,3.309-1.362,4.095-2.983l21.208-43.773C1110.487,757.078,1116.281,757.124,1118.313,761.241z"/>
					<g style="opacity:0.3;">
						
							<linearGradient id="SVGID_00000149349254826524026930000012445189382721155232_" gradientUnits="userSpaceOnUse" x1="157.1292" y1="781.6296" x2="-7.9831" y2="1074.3281" gradientTransform="matrix(1 -0.0064 0.0064 1 1001.0312 -29.0492)">
							<stop  offset="0" style="stop-color:#FFC444"/>
							<stop  offset="0.9964" style="stop-color:#F36F56"/>
						</linearGradient>
						<path style="fill:url(#SVGID_00000149349254826524026930000012445189382721155232_);" d="M1148.07,884.727
							c-16.607-15.986-35.187-15.271-42.806-33.633c-8.536-20.571,9.271-34.768,6.044-59.945c-0.781-6.098-2.827-13.071-7.314-20.67
							l-16.694,34.456c-0.786,1.621-2.317,2.737-4.095,2.983l-47.97,6.638c-4.474,0.619-6.226,6.161-2.966,9.378l34.956,34.499
							c1.295,1.279,1.895,3.11,1.602,4.896l-7.895,48.214c-0.736,4.498,3.969,7.978,7.963,5.889l42.826-22.402
							c1.587-0.83,3.49-0.813,5.089,0.047l43.157,23.219c2.344,1.261,4.902,0.637,6.478-0.993
							C1162.072,901.49,1155.043,891.44,1148.07,884.727z"/>
					</g>
				</g>
				<g>
					
						<linearGradient id="SVGID_00000160163253839153344800000004378447337533027774_" gradientUnits="userSpaceOnUse" x1="221.5823" y1="872.7324" x2="388.7338" y2="872.7324" gradientTransform="matrix(1 -0.0064 0.0064 1 1001.0312 -29.0492)">
						<stop  offset="0" style="stop-color:#311944"/>
						<stop  offset="1" style="stop-color:#893976"/>
					</linearGradient>
					<path style="fill:url(#SVGID_00000160163253839153344800000004378447337533027774_);" d="M1316.133,764.123l21.865,44.223
						c0.81,1.639,2.364,2.783,4.154,3.06l48.344,7.476c4.513,0.698,6.349,6.29,3.107,9.463l-34.736,33.994
						c-1.286,1.259-1.866,3.084-1.548,4.881l8.56,48.503c0.799,4.526-3.89,7.926-7.933,5.755l-43.321-23.264
						c-1.604-0.862-3.515-0.879-5.108-0.047l-42.989,22.443c-4.009,2.093-8.732-1.394-7.993-5.901l7.925-48.305
						c0.294-1.79-0.308-3.624-1.608-4.905l-35.089-34.565c-3.273-3.224-1.513-8.776,2.977-9.396l48.152-6.649
						c1.785-0.246,3.322-1.364,4.111-2.989l21.289-43.855C1308.277,759.951,1314.093,759.998,1316.133,764.123z"/>
					
						<linearGradient id="SVGID_00000059989322166372598110000008419833065086767291_" gradientUnits="userSpaceOnUse" x1="357.136" y1="785.9421" x2="191.7848" y2="1079.0641" gradientTransform="matrix(1 -0.0064 0.0064 1 1001.0312 -29.0492)">
						<stop  offset="0" style="stop-color:#FFC444"/>
						<stop  offset="0.9964" style="stop-color:#F36F56"/>
					</linearGradient>
					<path style="fill:url(#SVGID_00000059989322166372598110000008419833065086767291_);" d="M1318.276,764.14l21.866,44.224
						c0.81,1.639,2.364,2.783,4.154,3.06l48.346,7.476c4.513,0.698,6.349,6.29,3.107,9.463l-34.738,33.995
						c-1.286,1.259-1.866,3.084-1.548,4.881l8.56,48.504c0.799,4.526-3.89,7.927-7.934,5.755l-43.323-23.265
						c-1.604-0.862-3.515-0.879-5.108-0.047l-42.99,22.443c-4.009,2.093-8.732-1.394-7.993-5.901l7.925-48.307
						c0.294-1.79-0.308-3.624-1.608-4.905l-35.09-34.565c-3.273-3.224-1.514-8.776,2.977-9.396l48.154-6.649
						c1.785-0.246,3.322-1.364,4.111-2.989l21.29-43.856C1310.419,759.969,1316.236,760.015,1318.276,764.14z"/>
					<g style="opacity:0.3;">
						
							<linearGradient id="SVGID_00000021819004489038429050000017323995284940961711_" gradientUnits="userSpaceOnUse" x1="357.1214" y1="785.7756" x2="191.652" y2="1079.1071" gradientTransform="matrix(1 -0.0064 0.0064 1 1001.0312 -29.0492)">
							<stop  offset="0" style="stop-color:#FFC444"/>
							<stop  offset="0.9964" style="stop-color:#F36F56"/>
						</linearGradient>
						<path style="fill:url(#SVGID_00000021819004489038429050000017323995284940961711_);" d="M1348.146,887.864
							c-16.67-16.017-35.322-15.302-42.97-33.699c-8.568-20.611,9.306-34.834,6.067-60.06c-0.784-6.11-2.838-13.096-7.342-20.71
							l-16.759,34.522c-0.789,1.625-2.326,2.742-4.111,2.989l-48.154,6.649c-4.491,0.62-6.25,6.172-2.977,9.396l35.09,34.566
							c1.3,1.281,1.902,3.116,1.608,4.906l-7.925,48.306c-0.739,4.506,3.984,7.993,7.993,5.901l42.99-22.443
							c1.593-0.832,3.504-0.814,5.108,0.047l43.323,23.265c2.353,1.263,4.921,0.639,6.503-0.994
							C1362.203,904.659,1355.146,894.59,1348.146,887.864z"/>
					</g>
				</g>
				<g>
					
						<linearGradient id="SVGID_00000074424809118139832810000010964404150002725504_" gradientUnits="userSpaceOnUse" x1="421.9384" y1="877.0765" x2="589.7324" y2="877.0765" gradientTransform="matrix(1 -0.0064 0.0064 1 1001.0312 -29.0492)">
						<stop  offset="0" style="stop-color:#311944"/>
						<stop  offset="1" style="stop-color:#893976"/>
					</linearGradient>
					<path style="fill:url(#SVGID_00000074424809118139832810000010964404150002725504_);" d="M1516.855,767.033l21.949,44.309
						c0.813,1.642,2.373,2.789,4.17,3.066l48.529,7.491c4.53,0.7,6.373,6.302,3.119,9.481l-34.87,34.058
						c-1.291,1.261-1.873,3.09-1.554,4.891l8.593,48.597c0.802,4.534-3.905,7.942-7.964,5.766l-43.487-23.31
						c-1.611-0.863-3.528-0.881-5.128-0.048l-43.154,22.484c-4.024,2.097-8.766-1.397-8.024-5.912l7.955-48.398
						c0.295-1.793-0.309-3.631-1.614-4.915l-35.224-34.632c-3.285-3.23-1.519-8.793,2.988-9.414l48.337-6.66
						c1.792-0.247,3.335-1.367,4.127-2.994l21.371-43.939C1508.968,762.853,1514.807,762.9,1516.855,767.033z"/>
					
						<linearGradient id="SVGID_00000015347358095307385820000013464435842695169934_" gradientUnits="userSpaceOnUse" x1="557.9007" y1="790.0974" x2="392.1841" y2="1083.8672" gradientTransform="matrix(1 -0.0064 0.0064 1 1001.0312 -29.0492)">
						<stop  offset="0" style="stop-color:#FFC444"/>
						<stop  offset="0.9964" style="stop-color:#F36F56"/>
					</linearGradient>
					<path style="fill:url(#SVGID_00000015347358095307385820000013464435842695169934_);" d="M1519.006,767.05l21.95,44.309
						c0.813,1.642,2.373,2.789,4.17,3.066l48.532,7.492c4.53,0.699,6.373,6.303,3.119,9.482l-34.871,34.059
						c-1.292,1.261-1.873,3.09-1.554,4.891l8.593,48.598c0.802,4.534-3.905,7.942-7.964,5.766l-43.489-23.311
						c-1.61-0.863-3.528-0.881-5.128-0.048l-43.156,22.485c-4.024,2.097-8.766-1.397-8.024-5.912l7.955-48.399
						c0.295-1.793-0.309-3.631-1.615-4.915l-35.225-34.633c-3.285-3.23-1.519-8.793,2.988-9.414l48.339-6.661
						c1.792-0.247,3.335-1.367,4.127-2.994l21.372-43.94C1511.119,762.87,1516.958,762.917,1519.006,767.05z"/>
					<g style="opacity:0.3;">
						
							<linearGradient id="SVGID_00000036942476279501895510000017405988525191246262_" gradientUnits="userSpaceOnUse" x1="557.8813" y1="789.9374" x2="392.0535" y2="1083.9045" gradientTransform="matrix(1 -0.0064 0.0064 1 1001.0312 -29.0492)">
							<stop  offset="0" style="stop-color:#FFC444"/>
							<stop  offset="0.9964" style="stop-color:#F36F56"/>
						</linearGradient>
						<path style="fill:url(#SVGID_00000036942476279501895510000017405988525191246262_);" d="M1548.991,891.012
							c-16.734-16.048-35.458-15.332-43.135-33.765c-8.601-20.651,9.342-34.901,6.09-60.175c-0.787-6.122-2.849-13.122-7.37-20.75
							l-16.823,34.588c-0.792,1.628-2.335,2.747-4.127,2.994l-48.339,6.661c-4.508,0.621-6.273,6.184-2.988,9.414l35.225,34.633
							c1.305,1.284,1.909,3.122,1.615,4.915l-7.955,48.399c-0.742,4.515,3.999,8.009,8.024,5.912l43.156-22.485
							c1.599-0.833,3.517-0.815,5.128,0.048l43.489,23.311c2.361,1.266,4.94,0.64,6.528-0.996
							C1563.102,907.84,1556.018,897.751,1548.991,891.012z"/>
					</g>
				</g>
				<g>
					
						<linearGradient id="SVGID_00000119109460206947785500000006497643615534054832_" gradientUnits="userSpaceOnUse" x1="623.0647" y1="881.4374" x2="791.5048" y2="881.4374" gradientTransform="matrix(1 -0.0064 0.0064 1 1001.0312 -29.0492)">
						<stop  offset="0" style="stop-color:#311944"/>
						<stop  offset="1" style="stop-color:#893976"/>
					</linearGradient>
					<path style="fill:url(#SVGID_00000119109460206947785500000006497643615534054832_);" d="M1718.349,769.954l22.034,44.394
						c0.817,1.645,2.382,2.794,4.186,3.072l48.716,7.507c4.548,0.701,6.398,6.315,3.131,9.5l-35.004,34.123
						c-1.297,1.264-1.88,3.096-1.561,4.9l8.626,48.691c0.805,4.543-3.92,7.957-7.995,5.777l-43.655-23.357
						c-1.617-0.865-3.542-0.883-5.147-0.048l-43.32,22.526c-4.04,2.101-8.799-1.4-8.054-5.924l7.986-48.491
						c0.296-1.797-0.31-3.638-1.62-4.924l-35.359-34.7c-3.298-3.236-1.525-8.81,3-9.432l48.523-6.672
						c1.799-0.247,3.348-1.369,4.142-3l21.453-44.023C1710.432,765.766,1716.293,765.813,1718.349,769.954z"/>
					
						<linearGradient id="SVGID_00000086690866719187012410000014145851554554588559_" gradientUnits="userSpaceOnUse" x1="759.4377" y1="794.2687" x2="593.3542" y2="1088.6888" gradientTransform="matrix(1 -0.0064 0.0064 1 1001.0312 -29.0492)">
						<stop  offset="0" style="stop-color:#FFC444"/>
						<stop  offset="0.9964" style="stop-color:#F36F56"/>
					</linearGradient>
					<path style="fill:url(#SVGID_00000086690866719187012410000014145851554554588559_);" d="M1720.508,769.971l22.035,44.395
						c0.817,1.645,2.382,2.794,4.186,3.072l48.719,7.508c4.548,0.701,6.398,6.315,3.131,9.5l-35.005,34.124
						c-1.297,1.264-1.88,3.096-1.561,4.9l8.626,48.692c0.805,4.543-3.92,7.957-7.995,5.777l-43.657-23.357
						c-1.617-0.865-3.542-0.883-5.147-0.048l-43.322,22.527c-4.04,2.101-8.8-1.4-8.055-5.924l7.986-48.492
						c0.296-1.797-0.31-3.638-1.621-4.924l-35.36-34.701c-3.298-3.236-1.525-8.81,3-9.432l48.525-6.672
						c1.799-0.247,3.348-1.369,4.143-3l21.454-44.024C1712.591,765.783,1718.453,765.83,1720.508,769.971z"/>
					<g style="opacity:0.3;">
						
							<linearGradient id="SVGID_00000010277691938515812390000009729226000101108655_" gradientUnits="userSpaceOnUse" x1="759.4138" y1="794.1151" x2="593.2257" y2="1088.7207" gradientTransform="matrix(1 -0.0064 0.0064 1 1001.0312 -29.0492)">
							<stop  offset="0" style="stop-color:#FFC444"/>
							<stop  offset="0.9964" style="stop-color:#F36F56"/>
						</linearGradient>
						<path style="fill:url(#SVGID_00000010277691938515812390000009729226000101108655_);" d="M1750.609,894.173
							c-16.799-16.08-35.594-15.363-43.301-33.831c-8.634-20.691,9.378-34.967,6.114-60.29c-0.791-6.134-2.86-13.147-7.399-20.79
							l-16.888,34.654c-0.795,1.631-2.344,2.753-4.143,3l-48.525,6.672c-4.525,0.622-6.298,6.196-3,9.432l35.36,34.701
							c1.31,1.286,1.917,3.128,1.621,4.924l-7.986,48.492c-0.745,4.524,4.015,8.024,8.055,5.924l43.322-22.527
							c1.606-0.835,3.531-0.817,5.147,0.048l43.657,23.357c2.371,1.268,4.959,0.641,6.553-0.998
							C1764.774,911.034,1757.663,900.925,1750.609,894.173z"/>
					</g>
				</g>
				<g>
					<path style="fill:#BFC8D6;" d="M1920.62,772.886l22.119,44.481c0.82,1.648,2.391,2.799,4.202,3.078l48.904,7.523
						c4.565,0.702,6.423,6.327,3.143,9.518l-35.139,34.188c-1.301,1.266-1.887,3.102-1.567,4.909l8.659,48.785
						c0.808,4.552-3.935,7.972-8.026,5.788l-43.823-23.403c-1.623-0.867-3.555-0.885-5.167-0.048l-43.487,22.569
						c-4.055,2.104-8.833-1.403-8.086-5.935l8.016-48.584c0.297-1.8-0.311-3.645-1.627-4.934l-35.495-34.768
						c-3.311-3.243-1.531-8.827,3.011-9.45l48.71-6.683c1.806-0.248,3.361-1.372,4.158-3.005l21.536-44.107
						C1912.673,768.69,1918.557,768.737,1920.62,772.886z"/>
					<path style="fill:#BFC8D6;" d="M1922.788,772.904l22.12,44.481c0.82,1.649,2.391,2.799,4.202,3.078l48.907,7.523
						c4.565,0.703,6.423,6.327,3.143,9.518l-35.141,34.188c-1.302,1.266-1.887,3.102-1.567,4.91l8.659,48.786
						c0.808,4.552-3.935,7.972-8.026,5.788l-43.825-23.404c-1.623-0.867-3.555-0.885-5.167-0.048l-43.489,22.569
						c-4.056,2.104-8.834-1.403-8.086-5.936l8.017-48.585c0.297-1.8-0.311-3.645-1.627-4.934l-35.497-34.768
						c-3.311-3.243-1.531-8.827,3.011-9.451l48.712-6.683c1.806-0.248,3.361-1.372,4.159-3.006l21.537-44.108
						C1914.84,768.707,1920.724,768.755,1922.788,772.904z"/>
					<g style="opacity:0.3;">
						<path style="fill:#BFC8D6;" d="M1953.005,897.345c-16.864-16.111-35.732-15.393-43.469-33.897
							c-8.668-20.731,9.414-35.035,6.137-60.406c-0.794-6.145-2.871-13.172-7.427-20.83l-16.953,34.72
							c-0.798,1.634-2.353,2.758-4.159,3.006l-48.712,6.683c-4.543,0.623-6.322,6.208-3.011,9.45l35.497,34.769
							c1.315,1.289,1.924,3.134,1.627,4.934l-8.017,48.585c-0.748,4.533,4.03,8.04,8.086,5.936l43.489-22.569
							c1.612-0.836,3.544-0.818,5.167,0.048l43.825,23.404c2.38,1.271,4.978,0.643,6.578-0.999
							C1967.224,914.239,1960.086,904.111,1953.005,897.345z"/>
					</g>
				</g>
			</g>
		</g>
		<g>
			
				<linearGradient id="SVGID_00000033364784843726593470000000228162457829255059_" gradientUnits="userSpaceOnUse" x1="2713.7344" y1="1674.006" x2="2916.0569" y2="1999.2875">
				<stop  offset="0" style="stop-color:#311944"/>
				<stop  offset="1" style="stop-color:#893976"/>
			</linearGradient>
			<path style="fill:url(#SVGID_00000033364784843726593470000000228162457829255059_);" d="M3031.885,1730.984l-378.689-20.395
				c-31.192-1.68-56.611,21.282-56.611,51.296v207.5c0,30.014,25.419,54.971,56.611,55.74l123.805,3.05l57.776,68.276
				c3.483,4.116,9.579,4.787,13.874,1.525l0,0l55.564-66.667l127.67,3.145c28.872,0.711,52.159-21.95,52.159-50.612V1785.69
				C3084.043,1757.028,3060.756,1732.539,3031.885,1730.984z"/>
			
				<linearGradient id="SVGID_00000133528303361407408510000000004750099846412223_" gradientUnits="userSpaceOnUse" x1="2721.2717" y1="1667.9761" x2="2923.5942" y2="1993.2576">
				<stop  offset="0" style="stop-color:#FF9085"/>
				<stop  offset="1" style="stop-color:#FB6FBB"/>
			</linearGradient>
			<path style="fill:url(#SVGID_00000133528303361407408510000000004750099846412223_);" d="M3039.422,1724.954l-378.689-20.395
				c-31.192-1.68-56.611,21.282-56.611,51.296v207.5c0,30.014,25.419,54.971,56.611,55.74l123.805,3.05l56.365,66.609
				c4.011,4.74,11.301,4.794,15.383,0.115l55.466-63.59l127.67,3.145c28.872,0.711,52.159-21.95,52.159-50.612V1779.66
				C3091.581,1750.998,3068.293,1726.509,3039.422,1724.954z"/>
			<path style="fill:#FFFFFF;" d="M2977.967,1848.321c-2.093-39.274-28.782-72.27-62.021-76.448
				c-26.436-3.322-49.958,11.621-62.479,35.798c-12.551-25.366-36.292-42.661-63.227-41.927
				c-34.256,0.934-62.082,32.037-64.276,72.062c-1.45,26.447,8.147,50.755,23.904,67.141l96.698,78.761
				c4.177,3.402,9.624,3.555,13.793,0.392l94.715-71.861C2970.187,1897.298,2979.349,1874.255,2977.967,1848.321z"/>
		</g>
		<g>
			
				<linearGradient id="SVGID_00000042009881015533187540000012345763606298706086_" gradientUnits="userSpaceOnUse" x1="904.7859" y1="2534.1667" x2="918.6268" y2="2714.0996">
				<stop  offset="0" style="stop-color:#311944"/>
				<stop  offset="1" style="stop-color:#893976"/>
			</linearGradient>
			<path style="fill:url(#SVGID_00000042009881015533187540000012345763606298706086_);" d="M1027.52,2669.261
				c-2.799,0-5.191-2.128-5.462-4.972c-4.81-50.47-21.266-98.424-46.335-135.028c-22.208-32.428-48.648-51.779-70.739-51.779
				c-0.025,0-0.048,0-0.074,0c-80.462,0.157-97.293,184.89-97.453,186.757c-0.26,3.023-2.909,5.261-5.944,5.002
				c-3.022-0.26-5.262-2.921-5.002-5.943c0.689-8.029,17.917-196.626,108.378-196.803c0.032,0,0.065,0,0.097,0
				c26.102,0,55.181,20.608,79.802,56.558c26.103,38.115,43.224,87.903,48.207,140.193c0.287,3.02-1.927,5.702-4.948,5.991
				C1027.871,2669.253,1027.694,2669.261,1027.52,2669.261z"/>
			
				<linearGradient id="SVGID_00000000942401104499871820000008699611693408007611_" gradientUnits="userSpaceOnUse" x1="636.1057" y1="2700.6931" x2="769.9968" y2="2925.2183">
				<stop  offset="0" style="stop-color:#FF9085"/>
				<stop  offset="1" style="stop-color:#FB6FBB"/>
			</linearGradient>
			<path style="fill:url(#SVGID_00000000942401104499871820000008699611693408007611_);" d="M692.314,3049.458l105.919,53.625
				l64.176-196.936l-105.744-264.021l-29.985,7.352l-45.496,379.182C680.154,3037.243,684.602,3045.553,692.314,3049.458z"/>
			
				<linearGradient id="SVGID_00000160891196135681211730000018072972419711725235_" gradientUnits="userSpaceOnUse" x1="656.807" y1="2688.3484" x2="790.6981" y2="2912.8733">
				<stop  offset="0" style="stop-color:#FF9085"/>
				<stop  offset="1" style="stop-color:#FB6FBB"/>
			</linearGradient>
			<path style="opacity:0.52;fill:url(#SVGID_00000160891196135681211730000018072972419711725235_);" d="M862.409,2906.147
				l-105.744-264.021l-17.686,4.337c-2.452,35.251-1.375,64.263,0.291,85.386c7.089,89.891,30.631,114.906,19.226,177.615
				c-9.483,52.142-30.192,59.219-28.382,94.3c1.972,38.207,28.62,70.202,60.303,95.362l7.815,3.956L862.409,2906.147z"/>
			
				<linearGradient id="SVGID_00000181786194030433601920000010729364008747226047_" gradientUnits="userSpaceOnUse" x1="869.1863" y1="2791.1418" x2="1246.141" y2="3081.5828">
				<stop  offset="0" style="stop-color:#FF9085"/>
				<stop  offset="1" style="stop-color:#FB6FBB"/>
			</linearGradient>
			<polygon style="fill:url(#SVGID_00000181786194030433601920000010729364008747226047_);" points="756.665,2642.126 
				1151.596,2642.126 1282.299,3064.079 798.233,3103.083 			"/>
			
				<linearGradient id="SVGID_00000099622334694736225840000012202365098798810301_" gradientUnits="userSpaceOnUse" x1="943.2572" y1="2452.6641" x2="981.7098" y2="2697.8005">
				<stop  offset="0" style="stop-color:#311944"/>
				<stop  offset="1" style="stop-color:#893976"/>
			</linearGradient>
			<path style="fill:url(#SVGID_00000099622334694736225840000012202365098798810301_);" d="M879.008,2678.291
				c-2.493,0-4.75-1.708-5.344-4.241c-1.122-4.785-27.07-117.848,9.517-173.336c10.486-15.903,25.137-25.613,43.544-28.86
				c94.578-16.665,152.808,186.47,155.241,195.125c0.82,2.921-0.882,5.953-3.802,6.774c-2.924,0.823-5.954-0.883-6.775-3.802
				c-0.57-2.022-57.89-202.261-142.756-187.277c-15.531,2.739-27.398,10.618-36.28,24.087
				c-34.009,51.58-8.256,163.655-7.992,164.781c0.693,2.953-1.141,5.909-4.094,6.602
				C879.846,2678.244,879.423,2678.291,879.008,2678.291z"/>
			<g style="opacity:0.3;">
				
					<linearGradient id="SVGID_00000091013323989258200110000001625310871393809557_" gradientUnits="userSpaceOnUse" x1="874.0588" y1="2784.8169" x2="1251.0137" y2="3075.2581">
					<stop  offset="0" style="stop-color:#FF9085"/>
					<stop  offset="1" style="stop-color:#FB6FBB"/>
				</linearGradient>
				<path style="fill:url(#SVGID_00000091013323989258200110000001625310871393809557_);" d="M1151.595,2642.126H955.673
					c-9.663,9.828-16.52,21.156-17.176,33.863c-3.079,59.7,134.166,79.313,147.402,161.135
					c9.548,59.025-49.204,127.13-101.625,157.473c-55.23,31.968-92.653,15.779-130.007,51.271
					c-16.413,15.594-26.407,35.094-32.35,55.307l460.381-37.095L1151.595,2642.126z"/>
			</g>
			
				<linearGradient id="SVGID_00000144310880466586717670000005426841888819967624_" gradientUnits="userSpaceOnUse" x1="858.3348" y1="2671.4268" x2="864.5234" y2="2673.7253">
				<stop  offset="0" style="stop-color:#311944"/>
				<stop  offset="1" style="stop-color:#893976"/>
			</linearGradient>
			<circle style="fill:url(#SVGID_00000144310880466586717670000005426841888819967624_);" cx="879.047" cy="2679.12" r="15.352"/>
			
				<linearGradient id="SVGID_00000000186191511710376820000016317871565323995060_" gradientUnits="userSpaceOnUse" x1="1058.5437" y1="2670.0027" x2="1064.7323" y2="2672.3015">
				<stop  offset="0" style="stop-color:#311944"/>
				<stop  offset="1" style="stop-color:#893976"/>
			</linearGradient>
			
				<circle style="fill:url(#SVGID_00000000186191511710376820000016317871565323995060_);" cx="1079.256" cy="2677.696" r="15.352"/>
		</g>
	</g>
</g>
</svg>
